<svg xmlns="http://www.w3.org/2000/svg" width="1000" height="1000" viewBox="0 0 1000 1000">
  <defs>
    <style>
      .cls-1 {
        fill: #eee;
        fill-rule: evenodd;
      }
    </style>
  </defs>
  <g id="Artboard_1" data-name="Artboard 1">
    <path id="DA" class="cls-1" d="M251.431,511.651q48.843,0,86.655-21.075t58.266-60q20.454-38.924,20.455-90.25v-18.1q0-50.58-20.331-89.754t-57.4-60.5q-37.069-21.321-84.92-21.323H147.544v361H251.431Zm2.727-310.42q48.593,0,74.134,30.992t25.538,89.754V342.06q-0.5,57.774-26.9,88.639t-75.746,30.868h-40.91V201.231h43.885Zm482.094,310.42h65.456l-136.615-361H608.811l-136.367,361h65.208L566.909,427.6H706.747ZM636.828,227.264L689.143,377.02H584.513Z"/>
    <path id="VE" class="cls-1" d="M300.482,504.131H234.789l123.8,345.3h58.1l124.271-345.3h-65.93L387.282,774.255ZM805.962,647.85H664.141V552.512H828.255V504.131H604.14v345.3H829.915V801.529H664.141V695.281H805.962V647.85Z"/>
  </g>
</svg>
